<?xml version="1.0" encoding="UTF-8"?>
<svg xmlns="http://www.w3.org/2000/svg" version="1.1" viewBox="0 0 595.28 595.28">
  <defs>
    <style>
      .st0 { fill: #4199f9; }
      .st1 { fill: #58a8ff; }
      .st2 { fill: #1f7ce1; }
      .st4 { fill: #fff; }
      .st5 { fill: #1e4b8f; }
      .st6 { fill: #1e4b8f; }
    </style>
  </defs>
  <g>
    <path class="st4" d="M540.88,280.55c-5.09-20.63-15.73-39.66-29.97-53.59-15.81-15.47-35.43-24-55.26-24-12.1,0-23.96,3.05-35.38,9.09-2.02-27.21-11.95-51.28-29.02-70.06-18.06-19.87-43.75-33.26-72.46-37.78-5.96-4.13-13.49-6.38-21.41-6.38s-15.34,2.19-21.21,6.21c-28.67,4.28-54.36,17.37-72.49,36.96-17.49,18.91-27.52,43.21-29.29,70.75-11.24-5.83-22.9-8.78-34.79-8.78-19.82,0-39.45,8.52-55.26,23.99-14.24,13.93-24.88,32.96-29.97,53.59-9.56,38.75-.66,91.17,52.63,122.94,4.34,10.11,11.09,18.29,19.61,23.75,8.35,5.56,18.06,8.5,28.07,8.5,4.23,0,8.42-.52,12.51-1.56,9.49,9.23,24.84,17.9,43.75,24.65,18.57,6.63,38.51,10.58,53.34,10.58.84,0,1.67-.01,2.48-.04,18.03,17.87,42.52,28.07,67.62,28.07,5.08,0,10.15-.41,15.05-1.22,22.15-3.53,41.71-14.8,56.57-32.61,2.22-2.66,4.35-5.5,6.34-8.45,10.46-3.11,18.33-11.58,21.32-19.91,2.29.31,4.61.47,6.92.47,10,0,19.69-2.94,28.03-8.49,8.52-5.46,15.27-13.64,19.61-23.75,53.28-31.76,62.18-84.19,52.62-122.93Z"/>
    <path class="st1" d="M189.58,377.96c-6.15,45.49-56.05,49.52-66.49,11.97-119.37-62.72-8.87-242.88,74.25-131.96-11.6,38.65-13.63,78.74-7.76,120Z"/>
    <path class="st0" d="M187.44,387.67c-9.55,32.28-53.9,39.81-64.35,2.25-29.68-38.42-34.44-73.18-26.95-97.73h0c12.99-42.56,62.8-54.37,83.26-1.23-.32,2.32-2.14,8.08-3.6,16.53-3.05,17.47-4.6,46.45,11.63,80.17Z"/>
    <path class="st5" d="M182.91,387.74c-4.19,12.7-14.5,23.52-28.64,23.32-5.82-.08-11.56-2.18-16.06-5.88-2.39-1.97-4.45-4.34-6.1-6.95-2.12-3.37-2.66-7.58-4.71-10.82-1.79-2.83-6.39-4.28-9.19-6.01-3.22-1.99-6.37-4.12-9.35-6.44-5.29-4.11-10.15-8.81-14.45-13.95-7.59-9.09-13.07-19.89-16.06-31.33-9.82-37.65,8.93-90.43,50.06-100.66,26.37-6.56,49.58,11.6,64.61,31.47,3.83,5.07,12.52.09,8.63-5.05-13.04-17.24-30.42-33.36-52.54-36.96-17.71-2.89-34.88,2.85-48.74,13.9-30.03,23.96-41.99,68.61-30.26,104.78,8.21,25.33,27.23,44.75,50.44,57.09l-2.3-2.99c4.86,16.59,18.48,29.84,36.48,29.8,18.53-.04,32.27-13.9,37.8-30.66,2.02-6.13-7.63-8.75-9.64-2.66h0Z"/>
    <path class="st2" d="M179.4,290.98c-.32,2.32-2.14,8.08-3.6,16.53-20-57.47-59.19-47.42-79.66-15.31,12.99-42.55,62.8-54.36,83.26-1.22Z"/>
    <path class="st1" d="M405.69,377.96c6.15,45.49,56.05,49.52,66.49,11.97,119.37-62.72,8.87-242.88-74.25-131.96,11.6,38.65,13.63,78.74,7.76,120Z"/>
    <path class="st0" d="M407.84,387.67c9.55,32.28,53.9,39.81,64.35,2.25,29.68-38.42,34.44-73.18,26.95-97.73h0c-12.99-42.56-62.8-54.37-83.26-1.23.32,2.32,2.14,8.08,3.6,16.53,3.05,17.47,4.6,46.45-11.63,80.17Z"/>
    <path class="st5" d="M402.73,390.4c5.53,16.76,19.27,30.62,37.8,30.66,17.99.04,31.62-13.21,36.48-29.8l-2.3,2.99c20.69-11,38.27-27.6,47.54-49.39,7.93-18.65,9.24-39.51,4.75-59.21-7.72-33.86-35.76-69.71-73.73-67.94-25.19,1.17-45.12,18.52-59.65,37.74-3.88,5.13,4.8,10.12,8.63,5.05,13.75-18.18,33.99-35.02,58.21-32.61,19.25,1.91,35.26,15.83,45.14,31.7,11.35,18.23,16.47,40.84,13.01,62.14-4.09,25.17-19.6,46-41.04,59.38-3.4,2.12-8.53,3.69-10.2,7.51-1.74,3.99-2.78,7.85-5.42,11.45-4,5.44-9.93,9.32-16.58,10.58-15.72,2.98-28.35-8.82-32.99-22.89-2.01-6.08-11.67-3.48-9.64,2.66h0Z"/>
    <path class="st2" d="M415.87,290.98c.32,2.32,2.14,8.08,3.6,16.53,20-57.47,59.19-47.42,79.66-15.31-12.99-42.55-62.8-54.36-83.26-1.22Z"/>
    <path class="st1" d="M436.45,375.76c-.18,6.4-1.49,12.38-3.78,17.96-15.59,37.96-76.67,57.01-137.21,57.01s-123.02-19.86-134.68-59.74c-1.42-4.87-2.12-10.04-1.97-15.51h0c.27-10.13,3.37-21.26,9.88-33.44.59-1.11,1.53-2.25,1.21-3.46-49.02-182.8,296.73-187.02,257.01,0-.26,1.24.65,2.33,1.21,3.46,6.05,12.27,8.63,23.52,8.34,33.72Z"/>
    <path class="st2" d="M237.46,262.31c-27.94,6.69-45.52,5.58-43.49-20.52,34.97-36.39,160.18-44.69,207.49,2.12.16,25.29-15.81,25.09-43.75,18.4-40.66-13.76-81.91-12.1-120.24,0Z"/>
    <path class="st0" d="M436.45,375.76c-.18,6.4-1.49,12.38-3.78,17.96-15.59,37.96-76.67,57.01-137.21,57.01s-123.02-19.86-134.68-59.74c-1.42-4.87-2.12-10.04-1.97-15.51,30.49,76.87,242.25,75.26,277.64.28Z"/>
    <path class="st5" d="M432.43,339.52c-.8-1.46-.62-.23-.13-2.44.24-1.08.41-2.18.6-3.27.44-2.58.81-5.16,1.14-7.76.57-4.53.93-9.09,1.03-13.66.19-8.55-.54-17.13-2.2-25.52-3.02-15.2-9.6-29.55-19.07-41.81-18.77-24.29-47.48-39.07-77.03-45.7-30.98-6.96-64.3-5.98-94.61,3.65-28.23,8.97-54.85,26.18-69.63,52.49-7.63,13.57-11.63,28.86-12.3,44.38-.39,9,.41,18.01,1.94,26.88.39,2.25.83,4.49,1.33,6.72.24,1.07.49,2.13.75,3.2.15.6.42,1.23.46,1.84.1,1.39,1.1-2.07-.34.99-1.67,3.57-3.5,7.03-4.99,10.7-9.46,23.34-6.45,48.35,11.29,66.78,18.7,19.43,46.62,28.8,72.44,33.82,31.16,6.06,63.45,6.42,94.81,1.73,27.63-4.13,56.42-12.5,78.56-30.22,19.34-15.47,28.76-38.42,23.24-62.88-1.56-6.92-4.2-13.57-7.31-19.94-2.82-5.78-11.45-.72-8.63,5.05,5.41,11.07,8.6,22.68,7.43,34.83-.88,9.21-5.48,18.99-11.69,26.21-16.15,18.79-41.63,28.22-65.4,33.74-29.04,6.74-59.51,7.99-89.11,4.76-26.16-2.86-53.72-9.42-75.73-24.46-17.66-12.07-28.55-30.51-24.74-51.71,1.12-6.24,3.13-12.33,5.8-18.07,2.09-4.49,5.23-8.37,4.11-13.53-.95-4.38-2.08-8.68-2.81-13.11-2.54-15.29-2.11-31.19,2.41-46.07,8.15-26.81,29.32-46.47,54.2-58.09,26.69-12.48,57.39-16.19,86.53-13.22,28.33,2.89,57.35,12.92,78.81,32.14,22.56,20.22,32.97,48.7,31.29,78.73-.23,4.06-.63,8.11-1.26,12.12-.87,5.62-2.76,10.43.16,15.73,3.1,5.64,11.74.6,8.63-5.05Z"/>
    <path class="st6" d="M316.2,126.28c.1-1.13-.13-2.05-.57-2.78-4.87-15.45-37.05-14.85-37.05,2.78s32.17,18.23,37.05,2.79c.45-.73.68-1.66.58-2.79Z"/>
    <g>
      <path class="st2" d="M400.33,235.71c14.53-151.15-220.31-150.84-205.88-2.16,32-21.64,144.7-37.26,205.88,2.16Z"/>
      <path class="st6" d="M405.33,235.71c2.37-25.68-2.13-52.41-17.07-73.89-12.94-18.6-32.06-31.79-53.51-38.76-41.79-13.57-93.36-3.81-122.57,30.5-18.93,22.24-25.41,51.32-22.73,79.98.33,3.49,4.09,6.6,7.52,4.32,7.93-5.28,17.06-8.53,26.14-11.22,12.64-3.74,25.68-6.27,38.75-7.89,29.82-3.68,60.75-3.48,90.16,3.11,16.13,3.62,31.77,9.25,45.77,18.16,5.45,3.47,10.47-5.19,5.05-8.63-26.45-16.83-58.59-23.04-89.49-24.58-29.66-1.48-60.21,1.23-88.9,9.06-11.19,3.05-22.79,6.88-32.53,13.36l7.52,4.32c-2.22-23.79,1.74-47.91,15.75-67.7,11.6-16.39,29.26-27.84,48.3-33.69,38.79-11.93,85.4-2.5,112.08,29.39,17.28,20.65,22.18,47.94,19.75,74.16-.59,6.41,9.41,6.37,10,0Z"/>
    </g>
    <g>
      <path class="st2" d="M393.91,231.88c-1.1,26.47-23.95,17.65-37.86,12.71-27.96-9.93-72.51-15.45-117.32,0-13.95,4.81-36.76,11.7-37.86-14.76,49.79-24.93,136.54-30.51,193.04,2.06Z"/>
      <path class="st6" d="M388.91,231.88c-.27,4.62-1.11,10.48-5.97,12.46-4.22,1.71-9.5.42-13.7-.69-12.52-3.31-24.32-8.19-37.16-10.52-17.39-3.15-35.22-4.02-52.81-2.3-9.71.95-19.37,2.57-28.82,5.01-7.18,1.86-14.08,4.56-21.23,6.51-4.83,1.32-10.45,2.66-15.42,1.27-6.19-1.73-7.6-8.07-7.93-13.79-.83,1.44-1.65,2.88-2.48,4.32,21.4-10.6,45.37-16.21,69.04-18.58,26.18-2.63,52.99-1.49,78.58,4.84,14.12,3.49,27.73,8.6,40.38,15.8,5.6,3.19,10.65-5.45,5.05-8.63-47.12-26.83-107.78-28.77-159.49-15.98-13.31,3.29-26.31,7.83-38.6,13.92-1.48.73-2.57,2.68-2.48,4.32.81,13.88,8.22,24.66,23.1,24.29,6.07-.15,12.06-1.74,17.8-3.6,9.67-3.13,19.26-6.06,29.29-7.86,20.81-3.74,42.57-3.66,63.37.12,8.39,1.52,16.66,3.63,24.71,6.43,5.48,1.9,10.93,3.99,16.65,5.05,6.31,1.17,13.27,1.41,18.89-2.18,6.86-4.39,8.79-12.56,9.24-20.19.38-6.43-9.63-6.41-10,0Z"/>
    </g>
    <g id="eyes_open">
      <ellipse class="st5" cx="241.32" cy="322.35" rx="11.46" ry="17.69"/>
      <ellipse class="st5" cx="353.89" cy="322.35" rx="11.28" ry="16.6"/>
    </g>
    <g id="brows">
      <path class="st5" d="M225.32,286.2c-3.63,5.79-.06,10.93,5.24,4.86,4.29-4.17,8.89-5.98,13.75-5.77,8.02.13,8.7-7.34,1.44-8.66-7.96-1-15.4,1.87-20.43,9.57Z"/>
      <path class="st5" d="M369.71,286.2c3.63,5.79.06,10.93-5.24,4.86-4.29-4.17-8.89-5.98-13.75-5.77-8.02.13-8.7-7.34-1.44-8.66,7.96-1,15.4,1.87,20.43,9.57Z"/>
    </g>
    <ellipse class="st0" cx="208.91" cy="370.13" rx="20.68" ry="14.41"/>
    <ellipse class="st0" cx="388.86" cy="370.13" rx="20.68" ry="14.41"/>
    <ellipse class="st5" cx="392.92" cy="412.83" rx="4.14" ry="9.04" transform="translate(-161.06 546.69) rotate(-60)"/>
    <path class="st1" d="M399.38,438.84c-41.23,71.18-149.38,40.61-142.04-59.87,1.18-2.73,2.48-5.26,3.91-7.61,20.17-33.19,63.21-28,80.38-3.43-21.74,55.11,15.6,72.57,28.87,51.97-4.44-25.22,19.64-22.8,34.44-12.45h0c12.57,8.79,18.43,23.27-5.57,31.38Z"/>
    <path class="st0" d="M399.38,438.84c-41.23,71.18-151.18,40.89-143.84-59.59,1.45-.29,5.17-.11,6.8-.28,5.61,93.4,84.51,104.51,125.68,52.35,17.46-6.21,19.82-7.34,16.93-23.85,12.57,8.78,18.43,23.26-5.57,31.37Z"/>
    <path class="st6" d="M252.34,378.96c-2.27,33.41,8.29,67.86,36.08,88.32,22.52,16.58,52.86,20,78.36,8.47,15.72-7.11,28.24-19.63,36.91-34.4l-2.99,2.3c7.97-2.77,17.25-7.29,19.64-16.19,1.89-7.05-1.68-13.93-6.43-18.94-9.04-9.52-27.28-17.99-40.04-11.18-8.84,4.72-9.66,15.02-8.2,23.88l.5-3.85c-5.16,7.72-14.62,7.54-20.44.58-11.01-13.15-4.69-34.73.71-48.7,2.32-6.01-7.34-8.61-9.64-2.66-6.34,16.42-11.18,37.85-1.38,54.02,5.75,9.49,17.06,15.37,27.95,11.3,4.88-1.82,12.21-6.93,12.03-12.69-.08-2.45-.69-4.84-.34-7.3.32-2.22,1-3.63,2.05-4.7,2.01-2.05,5.46-2.49,9.42-2.02,3.76.44,8.44,2.16,12.1,4.2s7.76,5.12,10.02,8.36,2.69,5.73,1.83,7.77c-1.97,4.71-7.95,6.45-12.45,8.48-3.63,1.64-5.42,6.43-7.7,9.6s-5,6.34-7.85,9.18c-19.4,19.37-48.72,25.13-74.02,14.5-34.99-14.71-48.57-52.71-46.14-88.34.44-6.42-9.56-6.4-10,0h0Z"/>
    <ellipse class="st6" cx="392.92" cy="415.97" rx="4.14" ry="9.04" transform="translate(-163.78 548.26) rotate(-60)"/>
  </g>
</svg>
