<?xml version="1.0" encoding="UTF-8"?><svg id="a" xmlns="http://www.w3.org/2000/svg" viewBox="0 0 140 13"><defs><style>.b{fill:#fff;}</style></defs><polygon class="b" points="37.65 7.41 43.83 7.41 43.83 5.68 35.92 5.68 35.92 12.45 44.93 12.45 44.93 10.72 37.65 10.72 37.65 7.41"/><path class="b" d="M27.88,4.03c-.11-1.98-1.74-3.5-3.73-3.47h-5.64V12.44h1.73V7.92h2.74l3.49,4.53h2.19l-3.58-4.64c1.69-.41,2.9-1.98,2.8-3.78Zm-1.74,.17c.02,1.07-.83,1.96-1.99,1.98h-3.91V2.3h3.92c1.07-.03,1.96,.83,1.98,1.9Z"/><rect class="b" x="130.99" y=".56" width="9.01" height="1.73"/><path class="b" d="M5.44,7.41h3.59v2.49c-1.8,1.54-4.53,1.38-6.14-.38-1.65-1.8-1.53-4.61,.28-6.26,1.71-1.56,4.36-1.54,6.04,.05l.28,.26,1.16-1.29-.27-.25C9.17,.9,7.61,.31,5.96,.37c-1.64,.05-3.17,.74-4.29,1.94S-.05,5.08,0,6.72c.05,1.64,.74,3.17,1.94,4.3,1.18,1.11,2.69,1.67,4.21,1.67,1.2,0,2.4-.35,3.46-1.07,.38-.26,.73-.56,1.05-.89l.1-.11V5.68H5.44v1.73Z"/><rect class="b" x="35.92" y=".56" width="9.01" height="1.73"/><path class="b" d="M92.18,.31c-3.4,0-6.16,2.76-6.16,6.16s2.76,6.16,6.16,6.16h0c3.39,0,6.16-2.77,6.16-6.16,0-3.4-2.76-6.16-6.16-6.16Zm4.43,6.16c0,2.44-1.99,4.43-4.43,4.43s-4.43-1.99-4.43-4.43,1.99-4.43,4.43-4.43c2.44,0,4.43,1.99,4.43,4.43Z"/><polygon class="b" points="56.8 5.93 52.97 .59 50.85 .59 55.93 7.69 55.93 12.45 57.66 12.45 57.66 7.69 62.75 .59 60.62 .59 56.8 5.93"/><polygon class="b" points="132.72 10.72 132.72 7.41 138.91 7.41 138.91 5.68 130.99 5.68 130.99 12.45 140 12.45 140 10.72 132.72 10.72"/><path class="b" d="M119.27,5.62h0c-2.5-.52-2.5-1.48-2.5-2.06,0-.9,1.42-1.5,2.36-1.5,1.41,0,2.39,.84,2.74,1.2l.29,.3,1.11-1.35-.24-.24c-.62-.61-1.96-1.64-3.9-1.64-1.71,0-4.09,1.12-4.09,3.23,0,1.99,1.27,3.22,3.88,3.76,2.58,.53,2.79,1.14,2.79,1.77,0,1.16-1.32,1.77-2.62,1.77-1.43,0-2.78-1-3.29-1.44l-.26-.22-1.24,1.21,.31,.27c.66,.57,2.41,1.91,4.48,1.91s4.35-1.2,4.35-3.5c.01-2.28-1.99-3.01-4.16-3.46Z"/><polygon class="b" points="77.82 9.38 70.9 .56 69.45 .56 69.45 12.45 71.19 12.45 71.19 3.73 78.03 12.45 79.55 12.45 79.55 .56 77.82 .56 77.82 9.38"/><rect class="b" x="104.81" y=".56" width="1.73" height="11.89"/></svg>